<mxfile host="app.diagrams.net" agent="Mozilla/5.0 (Macintosh; Intel Mac OS X 10_15_7) AppleWebKit/537.36 (KHTML, like Gecko) Chrome/131.0.0.0 Safari/537.36" version="26.0.3" pages="3">
  <diagram name="LR-SV" id="ft6B9oeNtfkhcBupiPDH">
    <mxGraphModel dx="1242" dy="768" grid="1" gridSize="10" guides="1" tooltips="1" connect="1" arrows="1" fold="1" page="1" pageScale="1" pageWidth="850" pageHeight="1100" math="0" shadow="0">
      <root>
        <mxCell id="0" />
        <mxCell id="1" parent="0" />
        <mxCell id="UDtmN-QQpEdCFvvtXrBr-2" value="" style="endArrow=openThin;html=1;rounded=0;strokeWidth=2;endFill=0;" parent="1" edge="1">
          <mxGeometry width="50" height="50" relative="1" as="geometry">
            <mxPoint x="80" y="360" as="sourcePoint" />
            <mxPoint x="80" y="40" as="targetPoint" />
          </mxGeometry>
        </mxCell>
        <mxCell id="UDtmN-QQpEdCFvvtXrBr-3" value="" style="endArrow=openThin;html=1;rounded=0;strokeWidth=2;endFill=0;" parent="1" edge="1">
          <mxGeometry width="50" height="50" relative="1" as="geometry">
            <mxPoint x="40" y="320" as="sourcePoint" />
            <mxPoint x="360" y="320" as="targetPoint" />
          </mxGeometry>
        </mxCell>
        <mxCell id="UDtmN-QQpEdCFvvtXrBr-4" value="" style="endArrow=none;html=1;rounded=0;strokeColor=#4C0099;strokeWidth=2;" parent="1" edge="1">
          <mxGeometry width="50" height="50" relative="1" as="geometry">
            <mxPoint x="50" y="320" as="sourcePoint" />
            <mxPoint x="330" y="90" as="targetPoint" />
          </mxGeometry>
        </mxCell>
        <mxCell id="UDtmN-QQpEdCFvvtXrBr-5" value="" style="ellipse;whiteSpace=wrap;html=1;fillColor=#FF66FF;" parent="1" vertex="1">
          <mxGeometry x="100" y="250" width="10" height="10" as="geometry" />
        </mxCell>
        <mxCell id="UDtmN-QQpEdCFvvtXrBr-6" value="" style="ellipse;whiteSpace=wrap;html=1;fillColor=#FF66FF;" parent="1" vertex="1">
          <mxGeometry x="120" y="210" width="10" height="10" as="geometry" />
        </mxCell>
        <mxCell id="UDtmN-QQpEdCFvvtXrBr-7" value="" style="ellipse;whiteSpace=wrap;html=1;fillColor=#FF66FF;" parent="1" vertex="1">
          <mxGeometry x="100" y="290" width="10" height="10" as="geometry" />
        </mxCell>
        <mxCell id="UDtmN-QQpEdCFvvtXrBr-8" value="" style="ellipse;whiteSpace=wrap;html=1;fillColor=#FF66FF;" parent="1" vertex="1">
          <mxGeometry x="150" y="250" width="10" height="10" as="geometry" />
        </mxCell>
        <mxCell id="UDtmN-QQpEdCFvvtXrBr-9" value="" style="ellipse;whiteSpace=wrap;html=1;fillColor=#FF66FF;" parent="1" vertex="1">
          <mxGeometry x="180" y="230" width="10" height="10" as="geometry" />
        </mxCell>
        <mxCell id="UDtmN-QQpEdCFvvtXrBr-10" value="" style="ellipse;whiteSpace=wrap;html=1;fillColor=#FF66FF;" parent="1" vertex="1">
          <mxGeometry x="160" y="200" width="10" height="10" as="geometry" />
        </mxCell>
        <mxCell id="UDtmN-QQpEdCFvvtXrBr-11" value="" style="ellipse;whiteSpace=wrap;html=1;fillColor=#FF66FF;" parent="1" vertex="1">
          <mxGeometry x="130" y="280" width="10" height="10" as="geometry" />
        </mxCell>
        <mxCell id="UDtmN-QQpEdCFvvtXrBr-12" value="" style="ellipse;whiteSpace=wrap;html=1;fillColor=#FF66FF;" parent="1" vertex="1">
          <mxGeometry x="220" y="190" width="10" height="10" as="geometry" />
        </mxCell>
        <mxCell id="UDtmN-QQpEdCFvvtXrBr-13" value="" style="ellipse;whiteSpace=wrap;html=1;fillColor=#FF66FF;" parent="1" vertex="1">
          <mxGeometry x="190" y="150" width="10" height="10" as="geometry" />
        </mxCell>
        <mxCell id="UDtmN-QQpEdCFvvtXrBr-14" value="" style="ellipse;whiteSpace=wrap;html=1;fillColor=#FF66FF;" parent="1" vertex="1">
          <mxGeometry x="250" y="190" width="10" height="10" as="geometry" />
        </mxCell>
        <mxCell id="UDtmN-QQpEdCFvvtXrBr-15" value="" style="ellipse;whiteSpace=wrap;html=1;fillColor=#FF66FF;" parent="1" vertex="1">
          <mxGeometry x="240" y="130" width="10" height="10" as="geometry" />
        </mxCell>
        <mxCell id="UDtmN-QQpEdCFvvtXrBr-16" value="" style="ellipse;whiteSpace=wrap;html=1;fillColor=#FF66FF;" parent="1" vertex="1">
          <mxGeometry x="280" y="100" width="10" height="10" as="geometry" />
        </mxCell>
        <mxCell id="UDtmN-QQpEdCFvvtXrBr-17" value="" style="ellipse;whiteSpace=wrap;html=1;fillColor=#FF66FF;" parent="1" vertex="1">
          <mxGeometry x="290" y="160" width="10" height="10" as="geometry" />
        </mxCell>
        <mxCell id="UDtmN-QQpEdCFvvtXrBr-18" value="" style="ellipse;whiteSpace=wrap;html=1;fillColor=#FF66FF;" parent="1" vertex="1">
          <mxGeometry x="310" y="120" width="10" height="10" as="geometry" />
        </mxCell>
        <mxCell id="UDtmN-QQpEdCFvvtXrBr-22" value="X" style="text;html=1;align=center;verticalAlign=middle;whiteSpace=wrap;rounded=0;" parent="1" vertex="1">
          <mxGeometry x="360" y="310" width="20" height="20" as="geometry" />
        </mxCell>
        <mxCell id="UDtmN-QQpEdCFvvtXrBr-23" value="Y" style="text;html=1;align=center;verticalAlign=middle;whiteSpace=wrap;rounded=0;" parent="1" vertex="1">
          <mxGeometry x="70" y="20" width="20" height="20" as="geometry" />
        </mxCell>
        <mxCell id="UDtmN-QQpEdCFvvtXrBr-24" value="" style="endArrow=none;dashed=1;html=1;rounded=0;startArrow=blockThin;startFill=1;fontColor=#009900;strokeColor=#009900;" parent="1" edge="1">
          <mxGeometry width="50" height="50" relative="1" as="geometry">
            <mxPoint x="80" y="296" as="sourcePoint" />
            <mxPoint x="300" y="296" as="targetPoint" />
          </mxGeometry>
        </mxCell>
        <mxCell id="UDtmN-QQpEdCFvvtXrBr-25" value="" style="endArrow=none;dashed=1;html=1;rounded=0;" parent="1" edge="1">
          <mxGeometry width="50" height="50" relative="1" as="geometry">
            <mxPoint x="260" y="150" as="sourcePoint" />
            <mxPoint x="300" y="150" as="targetPoint" />
          </mxGeometry>
        </mxCell>
        <mxCell id="UDtmN-QQpEdCFvvtXrBr-26" value="" style="endArrow=none;dashed=1;html=1;rounded=0;" parent="1" edge="1">
          <mxGeometry width="50" height="50" relative="1" as="geometry">
            <mxPoint x="300" y="120" as="sourcePoint" />
            <mxPoint x="300" y="150" as="targetPoint" />
          </mxGeometry>
        </mxCell>
        <mxCell id="UDtmN-QQpEdCFvvtXrBr-27" value="&lt;span&gt;&lt;font&gt;m&lt;br&gt;&lt;font style=&quot;font-size: 10px;&quot;&gt;or&lt;/font&gt;&lt;br&gt;&lt;/font&gt;&lt;/span&gt;ω&lt;sub&gt;&lt;font style=&quot;font-size: 10px;&quot;&gt;1&lt;/font&gt;&lt;/sub&gt;" style="text;html=1;align=center;verticalAlign=middle;whiteSpace=wrap;rounded=0;fontStyle=3;fontSize=14;fontColor=#007FFF;" parent="1" vertex="1">
          <mxGeometry x="300" y="140" width="20" height="50" as="geometry" />
        </mxCell>
        <mxCell id="UDtmN-QQpEdCFvvtXrBr-28" value="&lt;span style=&quot;&quot;&gt;b&lt;br&gt;&lt;font style=&quot;font-size: 10px;&quot;&gt;or&lt;/font&gt;&lt;br&gt;&lt;/span&gt;&lt;span style=&quot;&quot;&gt;ω&lt;/span&gt;&lt;sub style=&quot;&quot;&gt;&lt;font style=&quot;font-size: 10px;&quot;&gt;0&lt;/font&gt;&lt;/sub&gt;" style="text;html=1;align=center;verticalAlign=middle;whiteSpace=wrap;rounded=0;fontStyle=3;fontSize=14;fontColor=#009900;" parent="1" vertex="1">
          <mxGeometry x="300" y="268" width="20" height="52" as="geometry" />
        </mxCell>
        <mxCell id="UDtmN-QQpEdCFvvtXrBr-29" value="independent variable" style="text;html=1;align=center;verticalAlign=middle;whiteSpace=wrap;rounded=0;" parent="1" vertex="1">
          <mxGeometry x="140" y="320" width="150" height="20" as="geometry" />
        </mxCell>
        <mxCell id="UDtmN-QQpEdCFvvtXrBr-30" value="dependent variable" style="text;html=1;align=center;verticalAlign=middle;whiteSpace=wrap;rounded=0;rotation=90;" parent="1" vertex="1">
          <mxGeometry x="-10" y="160" width="150" height="20" as="geometry" />
        </mxCell>
        <mxCell id="UDtmN-QQpEdCFvvtXrBr-31" value="datapoints" style="text;html=1;align=center;verticalAlign=middle;whiteSpace=wrap;rounded=0;rotation=-40;fontColor=#FF66FF;" parent="1" vertex="1">
          <mxGeometry x="80" y="170" width="150" height="20" as="geometry" />
        </mxCell>
        <mxCell id="UDtmN-QQpEdCFvvtXrBr-32" value="y = &lt;b&gt;&lt;font style=&quot;color: rgb(0, 127, 255);&quot;&gt;m&lt;/font&gt;&lt;/b&gt;x + &lt;b&gt;&lt;font style=&quot;color: rgb(0, 153, 0);&quot;&gt;b&lt;/font&gt;&lt;/b&gt;" style="text;html=1;align=center;verticalAlign=middle;whiteSpace=wrap;rounded=0;fontSize=33;" parent="1" vertex="1">
          <mxGeometry x="400" y="70" width="180" height="50" as="geometry" />
        </mxCell>
        <mxCell id="UDtmN-QQpEdCFvvtXrBr-33" value="linear regression" style="text;html=1;align=center;verticalAlign=middle;whiteSpace=wrap;rounded=0;rotation=-40;fontColor=#4C0099;fontSize=10;" parent="1" vertex="1">
          <mxGeometry x="201.51" y="131.64" width="120" height="10" as="geometry" />
        </mxCell>
        <mxCell id="UDtmN-QQpEdCFvvtXrBr-34" value="dependent variable" style="text;html=1;align=left;verticalAlign=middle;whiteSpace=wrap;rounded=0;rotation=45;" parent="1" vertex="1">
          <mxGeometry x="404.39" y="144.39" width="120" height="20" as="geometry" />
        </mxCell>
        <mxCell id="UDtmN-QQpEdCFvvtXrBr-35" value="slope / coefficient" style="text;html=1;align=left;verticalAlign=middle;whiteSpace=wrap;rounded=0;rotation=45;fontColor=#007FFF;" parent="1" vertex="1">
          <mxGeometry x="455.86" y="140.86" width="110" height="20" as="geometry" />
        </mxCell>
        <mxCell id="UDtmN-QQpEdCFvvtXrBr-36" value="independent variable" style="text;html=1;align=left;verticalAlign=middle;whiteSpace=wrap;rounded=0;rotation=45;" parent="1" vertex="1">
          <mxGeometry x="484.39" y="144.39" width="120" height="20" as="geometry" />
        </mxCell>
        <mxCell id="UDtmN-QQpEdCFvvtXrBr-37" value="intercept" style="text;html=1;align=left;verticalAlign=middle;whiteSpace=wrap;rounded=0;rotation=45;fontColor=#009900;" parent="1" vertex="1">
          <mxGeometry x="547.32" y="137.32" width="100" height="20" as="geometry" />
        </mxCell>
        <mxCell id="lRdg8YPIiVVx4SO15s_N-5" value="y =&amp;nbsp;&lt;font style=&quot;color: rgb(0, 153, 0);&quot;&gt;&lt;b&gt;ω&lt;sub&gt;&lt;font style=&quot;font-size: 16px;&quot;&gt;0&lt;/font&gt;&lt;/sub&gt;&lt;/b&gt;&lt;/font&gt;&amp;nbsp;+&amp;nbsp;&lt;font style=&quot;color: rgb(0, 127, 255);&quot;&gt;&lt;b&gt;ω&lt;sub&gt;&lt;font style=&quot;font-size: 16px;&quot;&gt;1&lt;/font&gt;&lt;/sub&gt;&lt;/b&gt;&lt;/font&gt;x +&amp;nbsp;&lt;font style=&quot;color: rgb(204, 0, 0);&quot;&gt;ε&lt;/font&gt;" style="text;html=1;align=center;verticalAlign=middle;whiteSpace=wrap;rounded=0;fontSize=33;" parent="1" vertex="1">
          <mxGeometry x="406" y="233" width="240" height="50" as="geometry" />
        </mxCell>
        <mxCell id="lRdg8YPIiVVx4SO15s_N-6" value="dependent variable" style="text;html=1;align=left;verticalAlign=middle;whiteSpace=wrap;rounded=0;rotation=45;" parent="1" vertex="1">
          <mxGeometry x="404.39" y="304.39" width="120" height="20" as="geometry" />
        </mxCell>
        <mxCell id="lRdg8YPIiVVx4SO15s_N-7" value="coefficient / weight" style="text;html=1;align=left;verticalAlign=middle;whiteSpace=wrap;rounded=0;rotation=45;fontColor=#007FFF;" parent="1" vertex="1">
          <mxGeometry x="531.46" y="311.46" width="140" height="20" as="geometry" />
        </mxCell>
        <mxCell id="lRdg8YPIiVVx4SO15s_N-8" value="independent variable" style="text;html=1;align=left;verticalAlign=middle;whiteSpace=wrap;rounded=0;rotation=45;" parent="1" vertex="1">
          <mxGeometry x="564.39" y="304.39" width="120" height="20" as="geometry" />
        </mxCell>
        <mxCell id="lRdg8YPIiVVx4SO15s_N-9" value="intercept / bias" style="text;html=1;align=left;verticalAlign=middle;whiteSpace=wrap;rounded=0;rotation=45;fontColor=#009900;" parent="1" vertex="1">
          <mxGeometry x="465.86" y="300.86" width="110" height="20" as="geometry" />
        </mxCell>
        <mxCell id="lRdg8YPIiVVx4SO15s_N-10" value="error" style="text;html=1;align=left;verticalAlign=middle;whiteSpace=wrap;rounded=0;rotation=45;fontColor=#CC0000;" parent="1" vertex="1">
          <mxGeometry x="618.79" y="293.79" width="90" height="20" as="geometry" />
        </mxCell>
        <mxCell id="lRdg8YPIiVVx4SO15s_N-11" value="" style="ellipse;whiteSpace=wrap;html=1;fillColor=#6666FF;" parent="1" vertex="1">
          <mxGeometry x="340" y="50" width="10" height="10" as="geometry" />
        </mxCell>
        <mxCell id="lRdg8YPIiVVx4SO15s_N-13" value="" style="endArrow=none;html=1;rounded=0;strokeColor=#4C0099;strokeWidth=2;dashed=1;" parent="1" edge="1">
          <mxGeometry width="50" height="50" relative="1" as="geometry">
            <mxPoint x="330" y="90" as="sourcePoint" />
            <mxPoint x="390" y="40" as="targetPoint" />
          </mxGeometry>
        </mxCell>
        <mxCell id="lRdg8YPIiVVx4SO15s_N-14" value="" style="endArrow=none;html=1;rounded=0;strokeColor=#CC0000;strokeWidth=1;dashed=1;dashPattern=1 1;entryX=0.5;entryY=0.5;entryDx=0;entryDy=0;entryPerimeter=0;" parent="1" target="lRdg8YPIiVVx4SO15s_N-11" edge="1">
          <mxGeometry width="50" height="50" relative="1" as="geometry">
            <mxPoint x="345" y="80" as="sourcePoint" />
            <mxPoint x="400" y="50" as="targetPoint" />
          </mxGeometry>
        </mxCell>
        <mxCell id="lRdg8YPIiVVx4SO15s_N-17" value="&lt;font style=&quot;color: rgb(204, 0, 0);&quot;&gt;ε&lt;/font&gt;" style="shape=curlyBracket;whiteSpace=wrap;html=1;rounded=1;labelPosition=left;verticalLabelPosition=middle;align=center;verticalAlign=middle;strokeColor=#CC0000;spacing=0;spacingRight=0;spacingBottom=4;" parent="1" vertex="1">
          <mxGeometry x="332.51" y="55" width="6.49" height="25" as="geometry" />
        </mxCell>
        <mxCell id="lRdg8YPIiVVx4SO15s_N-18" value="predicted&amp;nbsp; &amp;nbsp;&amp;gt;" style="text;html=1;align=left;verticalAlign=middle;whiteSpace=wrap;rounded=0;fontSize=5;" parent="1" vertex="1">
          <mxGeometry x="304.51" y="75" width="31.49" height="10" as="geometry" />
        </mxCell>
        <mxCell id="lRdg8YPIiVVx4SO15s_N-19" value="actual&amp;nbsp; &amp;nbsp; &amp;nbsp; &amp;nbsp; &amp;gt;" style="text;html=1;align=left;verticalAlign=middle;whiteSpace=wrap;rounded=0;fontSize=5;" parent="1" vertex="1">
          <mxGeometry x="304.51" y="50" width="31.49" height="10" as="geometry" />
        </mxCell>
        <mxCell id="lRdg8YPIiVVx4SO15s_N-20" value="" style="ellipse;whiteSpace=wrap;html=1;fillColor=#808080;aspect=fixed;" parent="1" vertex="1">
          <mxGeometry x="342" y="317" width="5" height="5" as="geometry" />
        </mxCell>
        <mxCell id="lRdg8YPIiVVx4SO15s_N-22" value="" style="endArrow=none;html=1;rounded=0;strokeColor=#808080;strokeWidth=1;dashed=1;dashPattern=1 1;exitX=0.441;exitY=0.32;exitDx=0;exitDy=0;exitPerimeter=0;" parent="1" source="lRdg8YPIiVVx4SO15s_N-20" edge="1">
          <mxGeometry width="50" height="50" relative="1" as="geometry">
            <mxPoint x="339.5" y="317.00000000000006" as="sourcePoint" />
            <mxPoint x="345" y="80" as="targetPoint" />
          </mxGeometry>
        </mxCell>
        <mxCell id="1ZIZ6dkmiwmQnRQSsGTK-1" value="Accuracy" style="text;html=1;align=center;verticalAlign=middle;whiteSpace=wrap;rounded=0;fontStyle=1;fontSize=24;" parent="1" vertex="1">
          <mxGeometry x="40" y="400" width="60" height="20" as="geometry" />
        </mxCell>
        <mxCell id="1ZIZ6dkmiwmQnRQSsGTK-6" value="n" style="text;html=1;align=center;verticalAlign=middle;whiteSpace=wrap;rounded=0;" parent="1" vertex="1">
          <mxGeometry x="343.99" y="407" width="30" height="20" as="geometry" />
        </mxCell>
        <mxCell id="1ZIZ6dkmiwmQnRQSsGTK-23" value="" style="group" parent="1" vertex="1" connectable="0">
          <mxGeometry x="60" y="409" width="500" height="71" as="geometry" />
        </mxCell>
        <mxCell id="1ZIZ6dkmiwmQnRQSsGTK-2" value="RSS (Residual Sum Of Squares)" style="text;html=1;align=left;verticalAlign=middle;whiteSpace=wrap;rounded=0;" parent="1ZIZ6dkmiwmQnRQSsGTK-23" vertex="1">
          <mxGeometry y="26" width="180" height="20" as="geometry" />
        </mxCell>
        <mxCell id="1ZIZ6dkmiwmQnRQSsGTK-3" value="Σ" style="text;whiteSpace=wrap;fontSize=40;" parent="1ZIZ6dkmiwmQnRQSsGTK-23" vertex="1">
          <mxGeometry x="283.99" width="30" height="50" as="geometry" />
        </mxCell>
        <mxCell id="1ZIZ6dkmiwmQnRQSsGTK-5" value="i=1" style="text;html=1;align=center;verticalAlign=middle;whiteSpace=wrap;rounded=0;" parent="1ZIZ6dkmiwmQnRQSsGTK-23" vertex="1">
          <mxGeometry x="283.99" y="43" width="30" height="20" as="geometry" />
        </mxCell>
        <mxCell id="1ZIZ6dkmiwmQnRQSsGTK-7" value="(y - ȳ)&lt;sup&gt;&lt;font style=&quot;font-size: 16px;&quot;&gt;2&lt;/font&gt;&lt;/sup&gt;" style="text;html=1;align=left;verticalAlign=middle;whiteSpace=wrap;rounded=0;fontSize=24;fontStyle=2" parent="1ZIZ6dkmiwmQnRQSsGTK-23" vertex="1">
          <mxGeometry x="311.99" y="20" width="92" height="20" as="geometry" />
        </mxCell>
        <mxCell id="1ZIZ6dkmiwmQnRQSsGTK-8" value="RSS =&amp;nbsp;" style="text;html=1;align=left;verticalAlign=middle;whiteSpace=wrap;rounded=0;fontSize=18;" parent="1ZIZ6dkmiwmQnRQSsGTK-23" vertex="1">
          <mxGeometry x="216.01" y="23" width="69.49" height="20" as="geometry" />
        </mxCell>
        <mxCell id="1ZIZ6dkmiwmQnRQSsGTK-10" value="where,&lt;br&gt;&lt;div&gt;n = no. of datapoints&lt;/div&gt;&lt;div&gt;y = actual value&lt;/div&gt;&lt;div&gt;ȳ = predicted value&lt;/div&gt;" style="text;html=1;align=left;verticalAlign=bottom;whiteSpace=wrap;rounded=0;fontSize=8;" parent="1ZIZ6dkmiwmQnRQSsGTK-23" vertex="1">
          <mxGeometry x="405.86" y="26" width="94.14" height="45" as="geometry" />
        </mxCell>
        <mxCell id="1ZIZ6dkmiwmQnRQSsGTK-24" value="" style="group" parent="1" vertex="1" connectable="0">
          <mxGeometry x="60" y="492" width="500" height="71" as="geometry" />
        </mxCell>
        <mxCell id="1ZIZ6dkmiwmQnRQSsGTK-13" value="MAE (Mean Absolute Error)" style="text;html=1;align=left;verticalAlign=middle;whiteSpace=wrap;rounded=0;" parent="1ZIZ6dkmiwmQnRQSsGTK-24" vertex="1">
          <mxGeometry y="26" width="180" height="20" as="geometry" />
        </mxCell>
        <mxCell id="1ZIZ6dkmiwmQnRQSsGTK-14" value="Σ" style="text;whiteSpace=wrap;fontSize=32;" parent="1ZIZ6dkmiwmQnRQSsGTK-24" vertex="1">
          <mxGeometry x="283.99" width="30" height="50" as="geometry" />
        </mxCell>
        <mxCell id="1ZIZ6dkmiwmQnRQSsGTK-15" value="i=1" style="text;html=1;align=center;verticalAlign=middle;whiteSpace=wrap;rounded=0;fontSize=10;" parent="1ZIZ6dkmiwmQnRQSsGTK-24" vertex="1">
          <mxGeometry x="280.99" y="34" width="30" height="14" as="geometry" />
        </mxCell>
        <mxCell id="1ZIZ6dkmiwmQnRQSsGTK-16" value="n" style="text;html=1;align=center;verticalAlign=middle;whiteSpace=wrap;rounded=0;fontSize=10;" parent="1ZIZ6dkmiwmQnRQSsGTK-24" vertex="1">
          <mxGeometry x="280.99" y="3" width="30" height="11" as="geometry" />
        </mxCell>
        <mxCell id="1ZIZ6dkmiwmQnRQSsGTK-17" value="|y - ȳ|" style="text;html=1;align=left;verticalAlign=middle;whiteSpace=wrap;rounded=0;fontSize=20;fontStyle=2" parent="1ZIZ6dkmiwmQnRQSsGTK-24" vertex="1">
          <mxGeometry x="304.99" y="17" width="92" height="20" as="geometry" />
        </mxCell>
        <mxCell id="1ZIZ6dkmiwmQnRQSsGTK-18" value="MAE =&amp;nbsp;" style="text;html=1;align=left;verticalAlign=middle;whiteSpace=wrap;rounded=0;fontSize=18;" parent="1ZIZ6dkmiwmQnRQSsGTK-24" vertex="1">
          <mxGeometry x="216.01" y="23" width="69.49" height="20" as="geometry" />
        </mxCell>
        <mxCell id="1ZIZ6dkmiwmQnRQSsGTK-19" value="where,&lt;br&gt;&lt;div&gt;n = no. of datapoints&lt;/div&gt;&lt;div&gt;y = actual value&lt;/div&gt;&lt;div&gt;ȳ = predicted value&lt;/div&gt;" style="text;html=1;align=left;verticalAlign=bottom;whiteSpace=wrap;rounded=0;fontSize=8;" parent="1ZIZ6dkmiwmQnRQSsGTK-24" vertex="1">
          <mxGeometry x="405.86" y="26" width="94.14" height="45" as="geometry" />
        </mxCell>
        <mxCell id="1ZIZ6dkmiwmQnRQSsGTK-20" value="" style="endArrow=none;html=1;rounded=0;exitX=0;exitY=1;exitDx=0;exitDy=0;" parent="1ZIZ6dkmiwmQnRQSsGTK-24" source="1ZIZ6dkmiwmQnRQSsGTK-15" edge="1">
          <mxGeometry width="50" height="50" relative="1" as="geometry">
            <mxPoint x="240" y="-92" as="sourcePoint" />
            <mxPoint x="360" y="48" as="targetPoint" />
          </mxGeometry>
        </mxCell>
        <mxCell id="1ZIZ6dkmiwmQnRQSsGTK-21" value="n" style="text;html=1;align=center;verticalAlign=middle;whiteSpace=wrap;rounded=0;fontSize=18;" parent="1ZIZ6dkmiwmQnRQSsGTK-24" vertex="1">
          <mxGeometry x="304.99" y="47" width="30" height="21" as="geometry" />
        </mxCell>
      </root>
    </mxGraphModel>
  </diagram>
  <diagram name="LR-MV" id="dPpouy2KCc9EeUn8jf0N">
    <mxGraphModel dx="1242" dy="768" grid="1" gridSize="10" guides="1" tooltips="1" connect="1" arrows="1" fold="1" page="1" pageScale="1" pageWidth="850" pageHeight="1100" math="0" shadow="0">
      <root>
        <mxCell id="hytD9whioqziYtamuN2R-0" />
        <mxCell id="hytD9whioqziYtamuN2R-1" parent="hytD9whioqziYtamuN2R-0" />
        <mxCell id="SBUnD1E64CyK9gL6Irq9-12" value="" style="verticalLabelPosition=bottom;verticalAlign=top;html=1;shape=mxgraph.basic.polygon;polyCoords=[[0.01,0.31],[0.59,0.48],[0.91,0.58],[0.87,0.9],[0.52,0.97],[0.34,0.74],[0.13,0.48],[0.01,0.31]];polyline=1;fillColor=#ffe6cc;rotation=-45;strokeColor=#d79b00;" parent="hytD9whioqziYtamuN2R-1" vertex="1">
          <mxGeometry x="83.11999999999999" y="120" width="283.75" height="310" as="geometry" />
        </mxCell>
        <mxCell id="hytD9whioqziYtamuN2R-2" value="" style="endArrow=openThin;html=1;rounded=0;strokeWidth=2;endFill=0;" parent="hytD9whioqziYtamuN2R-1" edge="1">
          <mxGeometry width="50" height="50" relative="1" as="geometry">
            <mxPoint x="87" y="360" as="sourcePoint" />
            <mxPoint x="87" y="40" as="targetPoint" />
          </mxGeometry>
        </mxCell>
        <mxCell id="hytD9whioqziYtamuN2R-3" value="" style="endArrow=openThin;html=1;rounded=0;strokeWidth=2;endFill=0;entryX=0.127;entryY=0.482;entryDx=0;entryDy=0;entryPerimeter=0;" parent="hytD9whioqziYtamuN2R-1" target="hytD9whioqziYtamuN2R-19" edge="1">
          <mxGeometry width="50" height="50" relative="1" as="geometry">
            <mxPoint x="60" y="330" as="sourcePoint" />
            <mxPoint x="360" y="480" as="targetPoint" />
          </mxGeometry>
        </mxCell>
        <mxCell id="hytD9whioqziYtamuN2R-4" value="" style="endArrow=none;html=1;rounded=0;strokeColor=#7F00FF;strokeWidth=2;dashed=1;" parent="hytD9whioqziYtamuN2R-1" edge="1">
          <mxGeometry width="50" height="50" relative="1" as="geometry">
            <mxPoint x="81" y="334" as="sourcePoint" />
            <mxPoint x="380" y="180" as="targetPoint" />
          </mxGeometry>
        </mxCell>
        <mxCell id="hytD9whioqziYtamuN2R-5" value="" style="ellipse;whiteSpace=wrap;html=1;fillColor=#FF66FF;" parent="hytD9whioqziYtamuN2R-1" vertex="1">
          <mxGeometry x="310" y="340" width="10" height="10" as="geometry" />
        </mxCell>
        <mxCell id="hytD9whioqziYtamuN2R-6" value="" style="ellipse;whiteSpace=wrap;html=1;fillColor=#FF66FF;" parent="hytD9whioqziYtamuN2R-1" vertex="1">
          <mxGeometry x="136" y="310" width="10" height="10" as="geometry" />
        </mxCell>
        <mxCell id="hytD9whioqziYtamuN2R-7" value="" style="ellipse;whiteSpace=wrap;html=1;fillColor=#FF66FF;" parent="hytD9whioqziYtamuN2R-1" vertex="1">
          <mxGeometry x="107" y="340" width="10" height="10" as="geometry" />
        </mxCell>
        <mxCell id="hytD9whioqziYtamuN2R-8" value="" style="ellipse;whiteSpace=wrap;html=1;fillColor=#FF66FF;" parent="hytD9whioqziYtamuN2R-1" vertex="1">
          <mxGeometry x="170" y="263.46" width="10" height="10" as="geometry" />
        </mxCell>
        <mxCell id="hytD9whioqziYtamuN2R-9" value="" style="ellipse;whiteSpace=wrap;html=1;fillColor=#FF66FF;" parent="hytD9whioqziYtamuN2R-1" vertex="1">
          <mxGeometry x="230" y="220" width="10" height="10" as="geometry" />
        </mxCell>
        <mxCell id="hytD9whioqziYtamuN2R-10" value="" style="ellipse;whiteSpace=wrap;html=1;fillColor=#FF66FF;" parent="hytD9whioqziYtamuN2R-1" vertex="1">
          <mxGeometry x="210" y="275" width="10" height="10" as="geometry" />
        </mxCell>
        <mxCell id="hytD9whioqziYtamuN2R-11" value="" style="ellipse;whiteSpace=wrap;html=1;fillColor=#FF66FF;" parent="hytD9whioqziYtamuN2R-1" vertex="1">
          <mxGeometry x="160" y="350" width="10" height="10" as="geometry" />
        </mxCell>
        <mxCell id="hytD9whioqziYtamuN2R-12" value="" style="ellipse;whiteSpace=wrap;html=1;fillColor=#FF66FF;" parent="hytD9whioqziYtamuN2R-1" vertex="1">
          <mxGeometry x="126" y="281.39" width="10" height="10" as="geometry" />
        </mxCell>
        <mxCell id="hytD9whioqziYtamuN2R-13" value="" style="ellipse;whiteSpace=wrap;html=1;fillColor=#FF66FF;" parent="hytD9whioqziYtamuN2R-1" vertex="1">
          <mxGeometry x="206" y="250" width="10" height="10" as="geometry" />
        </mxCell>
        <mxCell id="hytD9whioqziYtamuN2R-14" value="" style="ellipse;whiteSpace=wrap;html=1;fillColor=#FF66FF;" parent="hytD9whioqziYtamuN2R-1" vertex="1">
          <mxGeometry x="280" y="200" width="10" height="10" as="geometry" />
        </mxCell>
        <mxCell id="hytD9whioqziYtamuN2R-15" value="" style="ellipse;whiteSpace=wrap;html=1;fillColor=#FF66FF;" parent="hytD9whioqziYtamuN2R-1" vertex="1">
          <mxGeometry x="276" y="350" width="10" height="10" as="geometry" />
        </mxCell>
        <mxCell id="hytD9whioqziYtamuN2R-16" value="" style="ellipse;whiteSpace=wrap;html=1;fillColor=#FF66FF;" parent="hytD9whioqziYtamuN2R-1" vertex="1">
          <mxGeometry x="225" y="237.86" width="10" height="10" as="geometry" />
        </mxCell>
        <mxCell id="hytD9whioqziYtamuN2R-17" value="" style="ellipse;whiteSpace=wrap;html=1;fillColor=#FF66FF;" parent="hytD9whioqziYtamuN2R-1" vertex="1">
          <mxGeometry x="310" y="230" width="10" height="10" as="geometry" />
        </mxCell>
        <mxCell id="hytD9whioqziYtamuN2R-18" value="" style="ellipse;whiteSpace=wrap;html=1;fillColor=#FF66FF;" parent="hytD9whioqziYtamuN2R-1" vertex="1">
          <mxGeometry x="255" y="257.86" width="10" height="10" as="geometry" />
        </mxCell>
        <mxCell id="hytD9whioqziYtamuN2R-19" value="X1" style="text;html=1;align=center;verticalAlign=middle;whiteSpace=wrap;rounded=0;" parent="hytD9whioqziYtamuN2R-1" vertex="1">
          <mxGeometry x="390" y="460" width="20" height="20" as="geometry" />
        </mxCell>
        <mxCell id="hytD9whioqziYtamuN2R-20" value="Y" style="text;html=1;align=center;verticalAlign=middle;whiteSpace=wrap;rounded=0;" parent="hytD9whioqziYtamuN2R-1" vertex="1">
          <mxGeometry x="77" y="20" width="20" height="20" as="geometry" />
        </mxCell>
        <mxCell id="hytD9whioqziYtamuN2R-21" value="" style="endArrow=none;dashed=1;html=1;rounded=0;startArrow=blockThin;startFill=1;fontColor=#009900;strokeColor=#009900;" parent="hytD9whioqziYtamuN2R-1" edge="1">
          <mxGeometry width="50" height="50" relative="1" as="geometry">
            <mxPoint x="83.12" y="330" as="sourcePoint" />
            <mxPoint x="390" y="330" as="targetPoint" />
          </mxGeometry>
        </mxCell>
        <mxCell id="hytD9whioqziYtamuN2R-24" value="m&lt;sub&gt;&lt;font style=&quot;font-size: 10px;&quot;&gt;2&lt;/font&gt;&lt;/sub&gt;&amp;nbsp;&lt;font style=&quot;font-size: 10px;&quot;&gt;or&amp;nbsp;&lt;/font&gt;ω&lt;sub&gt;&lt;font style=&quot;font-size: 10px;&quot;&gt;2&lt;/font&gt;&lt;/sub&gt;" style="text;html=1;align=center;verticalAlign=middle;whiteSpace=wrap;rounded=0;fontStyle=3;fontSize=14;fontColor=#007FFF;" parent="hytD9whioqziYtamuN2R-1" vertex="1">
          <mxGeometry x="366.87" y="190" width="53.13" height="20" as="geometry" />
        </mxCell>
        <mxCell id="hytD9whioqziYtamuN2R-25" value="&lt;span style=&quot;&quot;&gt;b&lt;/span&gt;&lt;span style=&quot;&quot;&gt;&amp;nbsp;&lt;/span&gt;&lt;font style=&quot;font-size: 10px;&quot;&gt;or&amp;nbsp;&lt;/font&gt;&lt;span style=&quot;&quot;&gt;ω&lt;/span&gt;&lt;sub style=&quot;&quot;&gt;&lt;font style=&quot;font-size: 10px;&quot;&gt;0&lt;/font&gt;&lt;/sub&gt;" style="text;html=1;align=center;verticalAlign=middle;whiteSpace=wrap;rounded=0;fontStyle=3;fontSize=14;fontColor=#009900;" parent="hytD9whioqziYtamuN2R-1" vertex="1">
          <mxGeometry x="390" y="320" width="50" height="20" as="geometry" />
        </mxCell>
        <mxCell id="hytD9whioqziYtamuN2R-26" value="independent variable" style="text;html=1;align=center;verticalAlign=middle;whiteSpace=wrap;rounded=0;rotation=23;" parent="hytD9whioqziYtamuN2R-1" vertex="1">
          <mxGeometry x="170" y="405" width="150" height="20" as="geometry" />
        </mxCell>
        <mxCell id="hytD9whioqziYtamuN2R-27" value="dependent variable" style="text;html=1;align=center;verticalAlign=middle;whiteSpace=wrap;rounded=0;rotation=90;" parent="hytD9whioqziYtamuN2R-1" vertex="1">
          <mxGeometry x="4" y="160" width="150" height="20" as="geometry" />
        </mxCell>
        <mxCell id="hytD9whioqziYtamuN2R-28" value="datapoints" style="text;html=1;align=center;verticalAlign=middle;whiteSpace=wrap;rounded=0;rotation=-30;fontColor=#FF66FF;" parent="hytD9whioqziYtamuN2R-1" vertex="1">
          <mxGeometry x="117" y="225" width="150" height="20" as="geometry" />
        </mxCell>
        <mxCell id="hytD9whioqziYtamuN2R-29" value="y =&amp;nbsp;&lt;b&gt;&lt;font style=&quot;color: rgb(0, 127, 255);&quot;&gt;m&lt;sub&gt;&lt;font style=&quot;font-size: 16px;&quot;&gt;1&lt;/font&gt;&lt;/sub&gt;&lt;/font&gt;&lt;/b&gt;x&lt;sub&gt;&lt;font style=&quot;font-size: 16px;&quot;&gt;1&lt;/font&gt;&lt;/sub&gt; +&amp;nbsp;&lt;b&gt;&lt;font style=&quot;color: rgb(0, 127, 255);&quot;&gt;m&lt;sub&gt;&lt;font style=&quot;font-size: 16px;&quot;&gt;2&lt;/font&gt;&lt;/sub&gt;&lt;/font&gt;&lt;/b&gt;x&lt;sub&gt;&lt;font style=&quot;font-size: 16px;&quot;&gt;2&lt;/font&gt;&lt;/sub&gt; +&amp;nbsp;&lt;b&gt;&lt;font style=&quot;color: rgb(0, 153, 0);&quot;&gt;b&lt;/font&gt;&lt;/b&gt;" style="text;html=1;align=center;verticalAlign=middle;whiteSpace=wrap;rounded=0;fontSize=33;" parent="hytD9whioqziYtamuN2R-1" vertex="1">
          <mxGeometry x="460" y="101.53999999999999" width="330" height="50" as="geometry" />
        </mxCell>
        <mxCell id="hytD9whioqziYtamuN2R-31" value="dependent variable" style="text;html=1;align=left;verticalAlign=middle;whiteSpace=wrap;rounded=0;rotation=45;" parent="hytD9whioqziYtamuN2R-1" vertex="1">
          <mxGeometry x="475.86" y="172.40000000000003" width="110" height="20" as="geometry" />
        </mxCell>
        <mxCell id="hytD9whioqziYtamuN2R-32" value="slope / coefficient" style="text;html=1;align=left;verticalAlign=middle;whiteSpace=wrap;rounded=0;rotation=45;fontColor=#007FFF;" parent="hytD9whioqziYtamuN2R-1" vertex="1">
          <mxGeometry x="537.3199999999999" y="168.86" width="100" height="20" as="geometry" />
        </mxCell>
        <mxCell id="hytD9whioqziYtamuN2R-33" value="independent variable" style="text;html=1;align=left;verticalAlign=middle;whiteSpace=wrap;rounded=0;rotation=45;" parent="hytD9whioqziYtamuN2R-1" vertex="1">
          <mxGeometry x="574.39" y="175.93" width="120" height="20" as="geometry" />
        </mxCell>
        <mxCell id="hytD9whioqziYtamuN2R-34" value="intercept" style="text;html=1;align=left;verticalAlign=middle;whiteSpace=wrap;rounded=0;rotation=45;fontColor=#009900;" parent="hytD9whioqziYtamuN2R-1" vertex="1">
          <mxGeometry x="743.18" y="154.72000000000003" width="60" height="20" as="geometry" />
        </mxCell>
        <mxCell id="Uryw7ud-IIzmJZmk2hSa-0" value="slope / coefficient" style="text;html=1;align=left;verticalAlign=middle;whiteSpace=wrap;rounded=0;rotation=45;fontColor=#007FFF;" parent="hytD9whioqziYtamuN2R-1" vertex="1">
          <mxGeometry x="635.86" y="172.40000000000003" width="110" height="20" as="geometry" />
        </mxCell>
        <mxCell id="Uryw7ud-IIzmJZmk2hSa-1" value="independent variable" style="text;html=1;align=left;verticalAlign=middle;whiteSpace=wrap;rounded=0;rotation=45;" parent="hytD9whioqziYtamuN2R-1" vertex="1">
          <mxGeometry x="674.39" y="175.93" width="120" height="20" as="geometry" />
        </mxCell>
        <mxCell id="Uryw7ud-IIzmJZmk2hSa-2" value="" style="endArrow=openThin;html=1;rounded=0;strokeWidth=2;endFill=0;" parent="hytD9whioqziYtamuN2R-1" target="Uryw7ud-IIzmJZmk2hSa-3" edge="1">
          <mxGeometry width="50" height="50" relative="1" as="geometry">
            <mxPoint x="60" y="350" as="sourcePoint" />
            <mxPoint x="360" y="280" as="targetPoint" />
          </mxGeometry>
        </mxCell>
        <mxCell id="Uryw7ud-IIzmJZmk2hSa-3" value="X2" style="text;html=1;align=center;verticalAlign=middle;whiteSpace=wrap;rounded=0;" parent="hytD9whioqziYtamuN2R-1" vertex="1">
          <mxGeometry x="400" y="257.86" width="20" height="20" as="geometry" />
        </mxCell>
        <mxCell id="Uryw7ud-IIzmJZmk2hSa-4" value="" style="endArrow=none;html=1;rounded=0;strokeColor=#7F00FF;strokeWidth=2;dashed=1;" parent="hytD9whioqziYtamuN2R-1" edge="1">
          <mxGeometry width="50" height="50" relative="1" as="geometry">
            <mxPoint x="80" y="330" as="sourcePoint" />
            <mxPoint x="380" y="384.4594594594595" as="targetPoint" />
          </mxGeometry>
        </mxCell>
        <mxCell id="Uryw7ud-IIzmJZmk2hSa-7" value="m&lt;sub style=&quot;&quot;&gt;&lt;font style=&quot;font-size: 10px;&quot;&gt;1&lt;/font&gt;&lt;/sub&gt;&amp;nbsp;&lt;font style=&quot;font-size: 10px;&quot;&gt;or&amp;nbsp;&lt;/font&gt;ω&lt;sub&gt;&lt;font style=&quot;font-size: 10px;&quot;&gt;1&lt;/font&gt;&lt;/sub&gt;" style="text;html=1;align=center;verticalAlign=middle;whiteSpace=wrap;rounded=0;fontStyle=3;fontSize=14;fontColor=#007FFF;" parent="hytD9whioqziYtamuN2R-1" vertex="1">
          <mxGeometry x="356.87" y="384.66" width="53.13" height="25" as="geometry" />
        </mxCell>
        <mxCell id="Uryw7ud-IIzmJZmk2hSa-9" value="" style="ellipse;whiteSpace=wrap;html=1;fillColor=#FF66FF;" parent="hytD9whioqziYtamuN2R-1" vertex="1">
          <mxGeometry x="365" y="360" width="10" height="10" as="geometry" />
        </mxCell>
        <mxCell id="Uryw7ud-IIzmJZmk2hSa-10" value="" style="ellipse;whiteSpace=wrap;html=1;fillColor=#FF66FF;" parent="hytD9whioqziYtamuN2R-1" vertex="1">
          <mxGeometry x="280" y="240" width="10" height="10" as="geometry" />
        </mxCell>
        <mxCell id="Uryw7ud-IIzmJZmk2hSa-11" value="" style="ellipse;whiteSpace=wrap;html=1;fillColor=#FF66FF;" parent="hytD9whioqziYtamuN2R-1" vertex="1">
          <mxGeometry x="310" y="380" width="10" height="10" as="geometry" />
        </mxCell>
        <mxCell id="Uryw7ud-IIzmJZmk2hSa-12" value="" style="ellipse;whiteSpace=wrap;html=1;fillColor=#FF66FF;" parent="hytD9whioqziYtamuN2R-1" vertex="1">
          <mxGeometry x="240" y="340" width="10" height="10" as="geometry" />
        </mxCell>
        <mxCell id="Uryw7ud-IIzmJZmk2hSa-13" value="" style="ellipse;whiteSpace=wrap;html=1;fillColor=#FF66FF;" parent="hytD9whioqziYtamuN2R-1" vertex="1">
          <mxGeometry x="200" y="370" width="10" height="10" as="geometry" />
        </mxCell>
        <mxCell id="Uryw7ud-IIzmJZmk2hSa-14" value="" style="ellipse;whiteSpace=wrap;html=1;fillColor=#FF66FF;" parent="hytD9whioqziYtamuN2R-1" vertex="1">
          <mxGeometry x="260" y="375" width="10" height="10" as="geometry" />
        </mxCell>
        <mxCell id="SBUnD1E64CyK9gL6Irq9-0" value="y =&amp;nbsp;&lt;font style=&quot;color: rgb(0, 153, 0);&quot;&gt;&lt;b&gt;ω&lt;sub&gt;&lt;font style=&quot;font-size: 16px;&quot;&gt;0&lt;/font&gt;&lt;/sub&gt;&lt;/b&gt;&lt;/font&gt;&amp;nbsp;+&amp;nbsp;&lt;font style=&quot;color: rgb(0, 127, 255);&quot;&gt;&lt;b&gt;ω&lt;sub&gt;&lt;font style=&quot;font-size: 16px;&quot;&gt;1&lt;/font&gt;&lt;/sub&gt;&lt;/b&gt;&lt;/font&gt;x&lt;sub&gt;&lt;font style=&quot;font-size: 16px;&quot;&gt;1&lt;/font&gt;&lt;/sub&gt; +&amp;nbsp;&lt;font style=&quot;color: rgb(0, 127, 255);&quot;&gt;&lt;b&gt;ω&lt;sub&gt;&lt;font style=&quot;font-size: 16px;&quot;&gt;2&lt;/font&gt;&lt;/sub&gt;&lt;/b&gt;&lt;/font&gt;x&lt;sub&gt;&lt;font style=&quot;font-size: 16px;&quot;&gt;2&lt;/font&gt;&lt;/sub&gt; +&amp;nbsp;&lt;font style=&quot;color: rgb(204, 0, 0);&quot;&gt;ε&lt;/font&gt;" style="text;html=1;align=center;verticalAlign=middle;whiteSpace=wrap;rounded=0;fontSize=33;" parent="hytD9whioqziYtamuN2R-1" vertex="1">
          <mxGeometry x="475.86" y="305" width="340.26" height="50" as="geometry" />
        </mxCell>
        <mxCell id="SBUnD1E64CyK9gL6Irq9-1" value="dependent variable" style="text;html=1;align=left;verticalAlign=middle;whiteSpace=wrap;rounded=0;rotation=45;" parent="hytD9whioqziYtamuN2R-1" vertex="1">
          <mxGeometry x="465.85999999999996" y="382.59" width="120" height="20" as="geometry" />
        </mxCell>
        <mxCell id="SBUnD1E64CyK9gL6Irq9-2" value="coefficient / weight" style="text;html=1;align=left;verticalAlign=middle;whiteSpace=wrap;rounded=0;rotation=45;fontColor=#007FFF;" parent="hytD9whioqziYtamuN2R-1" vertex="1">
          <mxGeometry x="596.29" y="381.55" width="117.07" height="20" as="geometry" />
        </mxCell>
        <mxCell id="SBUnD1E64CyK9gL6Irq9-3" value="independent variable" style="text;html=1;align=left;verticalAlign=middle;whiteSpace=wrap;rounded=0;rotation=45;" parent="hytD9whioqziYtamuN2R-1" vertex="1">
          <mxGeometry x="625.86" y="382.59" width="120" height="20" as="geometry" />
        </mxCell>
        <mxCell id="SBUnD1E64CyK9gL6Irq9-4" value="intercept / bias" style="text;html=1;align=left;verticalAlign=middle;whiteSpace=wrap;rounded=0;rotation=45;fontColor=#009900;" parent="hytD9whioqziYtamuN2R-1" vertex="1">
          <mxGeometry x="529.87" y="372.93" width="92.67" height="20" as="geometry" />
        </mxCell>
        <mxCell id="SBUnD1E64CyK9gL6Irq9-5" value="error" style="text;html=1;align=left;verticalAlign=middle;whiteSpace=wrap;rounded=0;rotation=45;fontColor=#CC0000;" parent="hytD9whioqziYtamuN2R-1" vertex="1">
          <mxGeometry x="803.1800000000001" y="350" width="33.84" height="20" as="geometry" />
        </mxCell>
        <mxCell id="SBUnD1E64CyK9gL6Irq9-6" value="coefficient / weight" style="text;html=1;align=left;verticalAlign=middle;whiteSpace=wrap;rounded=0;rotation=45;fontColor=#007FFF;" parent="hytD9whioqziYtamuN2R-1" vertex="1">
          <mxGeometry x="701.36" y="380.11" width="112.98" height="20" as="geometry" />
        </mxCell>
        <mxCell id="SBUnD1E64CyK9gL6Irq9-7" value="independent variable" style="text;html=1;align=left;verticalAlign=middle;whiteSpace=wrap;rounded=0;rotation=45;" parent="hytD9whioqziYtamuN2R-1" vertex="1">
          <mxGeometry x="730.33" y="382.59" width="120" height="20" as="geometry" />
        </mxCell>
        <mxCell id="SBUnD1E64CyK9gL6Irq9-9" value="independent variable" style="text;html=1;align=center;verticalAlign=middle;whiteSpace=wrap;rounded=0;rotation=347;" parent="hytD9whioqziYtamuN2R-1" vertex="1">
          <mxGeometry x="150" y="310" width="150" height="20" as="geometry" />
        </mxCell>
      </root>
    </mxGraphModel>
  </diagram>
  <diagram name="LR-PLY" id="dzYj8dzKaK6XidxdqyTR">
    <mxGraphModel dx="621" dy="384" grid="1" gridSize="10" guides="1" tooltips="1" connect="1" arrows="1" fold="1" page="1" pageScale="1" pageWidth="850" pageHeight="1100" math="0" shadow="0">
      <root>
        <mxCell id="3X_j2uL-a-olMlORm64K-0" />
        <mxCell id="3X_j2uL-a-olMlORm64K-1" parent="3X_j2uL-a-olMlORm64K-0" />
        <mxCell id="3X_j2uL-a-olMlORm64K-2" value="" style="endArrow=openThin;html=1;rounded=0;strokeWidth=2;endFill=0;" edge="1" parent="3X_j2uL-a-olMlORm64K-1">
          <mxGeometry width="50" height="50" relative="1" as="geometry">
            <mxPoint x="80" y="360" as="sourcePoint" />
            <mxPoint x="80" y="40" as="targetPoint" />
          </mxGeometry>
        </mxCell>
        <mxCell id="3X_j2uL-a-olMlORm64K-3" value="" style="endArrow=openThin;html=1;rounded=0;strokeWidth=2;endFill=0;" edge="1" parent="3X_j2uL-a-olMlORm64K-1">
          <mxGeometry width="50" height="50" relative="1" as="geometry">
            <mxPoint x="40" y="320" as="sourcePoint" />
            <mxPoint x="360" y="320" as="targetPoint" />
          </mxGeometry>
        </mxCell>
        <mxCell id="3X_j2uL-a-olMlORm64K-5" value="" style="ellipse;whiteSpace=wrap;html=1;fillColor=#FF66FF;" vertex="1" parent="3X_j2uL-a-olMlORm64K-1">
          <mxGeometry x="250" y="280" width="10" height="10" as="geometry" />
        </mxCell>
        <mxCell id="3X_j2uL-a-olMlORm64K-6" value="" style="ellipse;whiteSpace=wrap;html=1;fillColor=#FF66FF;" vertex="1" parent="3X_j2uL-a-olMlORm64K-1">
          <mxGeometry x="280" y="260" width="10" height="10" as="geometry" />
        </mxCell>
        <mxCell id="3X_j2uL-a-olMlORm64K-7" value="" style="ellipse;whiteSpace=wrap;html=1;fillColor=#FF66FF;" vertex="1" parent="3X_j2uL-a-olMlORm64K-1">
          <mxGeometry x="100" y="290" width="10" height="10" as="geometry" />
        </mxCell>
        <mxCell id="3X_j2uL-a-olMlORm64K-8" value="" style="ellipse;whiteSpace=wrap;html=1;fillColor=#FF66FF;" vertex="1" parent="3X_j2uL-a-olMlORm64K-1">
          <mxGeometry x="217" y="290" width="10" height="10" as="geometry" />
        </mxCell>
        <mxCell id="3X_j2uL-a-olMlORm64K-9" value="" style="ellipse;whiteSpace=wrap;html=1;fillColor=#FF66FF;" vertex="1" parent="3X_j2uL-a-olMlORm64K-1">
          <mxGeometry x="270" y="180" width="10" height="10" as="geometry" />
        </mxCell>
        <mxCell id="3X_j2uL-a-olMlORm64K-10" value="" style="ellipse;whiteSpace=wrap;html=1;fillColor=#FF66FF;" vertex="1" parent="3X_j2uL-a-olMlORm64K-1">
          <mxGeometry x="300" y="230" width="10" height="10" as="geometry" />
        </mxCell>
        <mxCell id="3X_j2uL-a-olMlORm64K-11" value="" style="ellipse;whiteSpace=wrap;html=1;fillColor=#FF66FF;" vertex="1" parent="3X_j2uL-a-olMlORm64K-1">
          <mxGeometry x="150" y="300" width="10" height="10" as="geometry" />
        </mxCell>
        <mxCell id="3X_j2uL-a-olMlORm64K-12" value="" style="ellipse;whiteSpace=wrap;html=1;fillColor=#FF66FF;" vertex="1" parent="3X_j2uL-a-olMlORm64K-1">
          <mxGeometry x="310" y="145" width="10" height="10" as="geometry" />
        </mxCell>
        <mxCell id="3X_j2uL-a-olMlORm64K-13" value="" style="ellipse;whiteSpace=wrap;html=1;fillColor=#FF66FF;" vertex="1" parent="3X_j2uL-a-olMlORm64K-1">
          <mxGeometry x="330" y="100" width="10" height="10" as="geometry" />
        </mxCell>
        <mxCell id="3X_j2uL-a-olMlORm64K-18" value="" style="ellipse;whiteSpace=wrap;html=1;fillColor=#FF66FF;" vertex="1" parent="3X_j2uL-a-olMlORm64K-1">
          <mxGeometry x="340" y="50" width="10" height="10" as="geometry" />
        </mxCell>
        <mxCell id="3X_j2uL-a-olMlORm64K-19" value="X" style="text;html=1;align=center;verticalAlign=middle;whiteSpace=wrap;rounded=0;" vertex="1" parent="3X_j2uL-a-olMlORm64K-1">
          <mxGeometry x="360" y="310" width="20" height="20" as="geometry" />
        </mxCell>
        <mxCell id="3X_j2uL-a-olMlORm64K-20" value="Y" style="text;html=1;align=center;verticalAlign=middle;whiteSpace=wrap;rounded=0;" vertex="1" parent="3X_j2uL-a-olMlORm64K-1">
          <mxGeometry x="70" y="20" width="20" height="20" as="geometry" />
        </mxCell>
        <mxCell id="3X_j2uL-a-olMlORm64K-21" value="" style="endArrow=none;dashed=1;html=1;rounded=0;startArrow=blockThin;startFill=1;fontColor=#009900;strokeColor=#009900;" edge="1" parent="3X_j2uL-a-olMlORm64K-1">
          <mxGeometry width="50" height="50" relative="1" as="geometry">
            <mxPoint x="80" y="310" as="sourcePoint" />
            <mxPoint x="300" y="310" as="targetPoint" />
          </mxGeometry>
        </mxCell>
        <mxCell id="3X_j2uL-a-olMlORm64K-25" value="&lt;span&gt;&lt;font&gt;b&lt;/font&gt;&lt;/span&gt;" style="text;html=1;align=center;verticalAlign=middle;whiteSpace=wrap;rounded=0;fontStyle=3;fontSize=14;fontColor=#009900;" vertex="1" parent="3X_j2uL-a-olMlORm64K-1">
          <mxGeometry x="300" y="300" width="20" height="20" as="geometry" />
        </mxCell>
        <mxCell id="3X_j2uL-a-olMlORm64K-26" value="independent variable" style="text;html=1;align=center;verticalAlign=middle;whiteSpace=wrap;rounded=0;" vertex="1" parent="3X_j2uL-a-olMlORm64K-1">
          <mxGeometry x="140" y="320" width="150" height="20" as="geometry" />
        </mxCell>
        <mxCell id="3X_j2uL-a-olMlORm64K-27" value="dependent variable" style="text;html=1;align=center;verticalAlign=middle;whiteSpace=wrap;rounded=0;rotation=90;" vertex="1" parent="3X_j2uL-a-olMlORm64K-1">
          <mxGeometry x="-10" y="160" width="150" height="20" as="geometry" />
        </mxCell>
        <mxCell id="3X_j2uL-a-olMlORm64K-28" value="datapoints" style="text;html=1;align=center;verticalAlign=middle;whiteSpace=wrap;rounded=0;rotation=-45;fontColor=#FF66FF;" vertex="1" parent="3X_j2uL-a-olMlORm64K-1">
          <mxGeometry x="160" y="185" width="150" height="20" as="geometry" />
        </mxCell>
        <mxCell id="3X_j2uL-a-olMlORm64K-29" value="y =&amp;nbsp;&lt;b&gt;&lt;font style=&quot;color: rgb(0, 127, 255);&quot;&gt;m&lt;sub&gt;&lt;font style=&quot;font-size: 16px;&quot;&gt;1&lt;/font&gt;&lt;/sub&gt;&lt;/font&gt;&lt;/b&gt;x&amp;nbsp;+&amp;nbsp;&lt;b&gt;&lt;font style=&quot;color: rgb(0, 127, 255);&quot;&gt;m&lt;sub&gt;&lt;font style=&quot;font-size: 16px;&quot;&gt;2&lt;/font&gt;&lt;/sub&gt;&lt;/font&gt;&lt;/b&gt;x&lt;sup&gt;&lt;font style=&quot;font-size: 16px;&quot;&gt;2&lt;/font&gt;&lt;/sup&gt; +&amp;nbsp;&lt;b&gt;&lt;font style=&quot;color: rgb(0, 153, 0);&quot;&gt;b&lt;/font&gt;&lt;/b&gt;" style="text;html=1;align=center;verticalAlign=middle;whiteSpace=wrap;rounded=0;fontSize=33;" vertex="1" parent="3X_j2uL-a-olMlORm64K-1">
          <mxGeometry x="400" y="70" width="330" height="50" as="geometry" />
        </mxCell>
        <mxCell id="3X_j2uL-a-olMlORm64K-30" value="dependent variable" style="text;html=1;align=left;verticalAlign=middle;whiteSpace=wrap;rounded=0;rotation=45;" vertex="1" parent="3X_j2uL-a-olMlORm64K-1">
          <mxGeometry x="420" y="155" width="150" height="20" as="geometry" />
        </mxCell>
        <mxCell id="3X_j2uL-a-olMlORm64K-31" value="slope / coefficient" style="text;html=1;align=left;verticalAlign=middle;whiteSpace=wrap;rounded=0;rotation=45;fontColor=#007FFF;" vertex="1" parent="3X_j2uL-a-olMlORm64K-1">
          <mxGeometry x="470" y="155" width="150" height="20" as="geometry" />
        </mxCell>
        <mxCell id="3X_j2uL-a-olMlORm64K-32" value="independent variable" style="text;html=1;align=left;verticalAlign=middle;whiteSpace=wrap;rounded=0;rotation=45;" vertex="1" parent="3X_j2uL-a-olMlORm64K-1">
          <mxGeometry x="510" y="155" width="150" height="20" as="geometry" />
        </mxCell>
        <mxCell id="3X_j2uL-a-olMlORm64K-33" value="intercept" style="text;html=1;align=left;verticalAlign=middle;whiteSpace=wrap;rounded=0;rotation=45;fontColor=#009900;" vertex="1" parent="3X_j2uL-a-olMlORm64K-1">
          <mxGeometry x="670" y="155" width="150" height="20" as="geometry" />
        </mxCell>
        <mxCell id="3X_j2uL-a-olMlORm64K-34" value="slope / coefficient" style="text;html=1;align=left;verticalAlign=middle;whiteSpace=wrap;rounded=0;rotation=45;fontColor=#007FFF;" vertex="1" parent="3X_j2uL-a-olMlORm64K-1">
          <mxGeometry x="570" y="155" width="150" height="20" as="geometry" />
        </mxCell>
        <mxCell id="3X_j2uL-a-olMlORm64K-35" value="independent variable" style="text;html=1;align=left;verticalAlign=middle;whiteSpace=wrap;rounded=0;rotation=45;" vertex="1" parent="3X_j2uL-a-olMlORm64K-1">
          <mxGeometry x="610" y="155" width="150" height="20" as="geometry" />
        </mxCell>
        <mxCell id="3X_j2uL-a-olMlORm64K-42" value="" style="ellipse;whiteSpace=wrap;html=1;fillColor=#FF66FF;" vertex="1" parent="3X_j2uL-a-olMlORm64K-1">
          <mxGeometry x="360" y="140" width="10" height="10" as="geometry" />
        </mxCell>
        <mxCell id="3X_j2uL-a-olMlORm64K-43" value="" style="ellipse;whiteSpace=wrap;html=1;fillColor=#FF66FF;" vertex="1" parent="3X_j2uL-a-olMlORm64K-1">
          <mxGeometry x="365" y="90" width="10" height="10" as="geometry" />
        </mxCell>
        <mxCell id="3X_j2uL-a-olMlORm64K-45" value="" style="ellipse;whiteSpace=wrap;html=1;fillColor=#FF66FF;" vertex="1" parent="3X_j2uL-a-olMlORm64K-1">
          <mxGeometry x="227" y="240" width="10" height="10" as="geometry" />
        </mxCell>
        <mxCell id="3X_j2uL-a-olMlORm64K-46" value="" style="ellipse;whiteSpace=wrap;html=1;fillColor=#FF66FF;" vertex="1" parent="3X_j2uL-a-olMlORm64K-1">
          <mxGeometry x="180" y="270" width="10" height="10" as="geometry" />
        </mxCell>
        <mxCell id="3X_j2uL-a-olMlORm64K-47" value="" style="ellipse;whiteSpace=wrap;html=1;fillColor=#FF66FF;" vertex="1" parent="3X_j2uL-a-olMlORm64K-1">
          <mxGeometry x="340" y="190" width="10" height="10" as="geometry" />
        </mxCell>
        <mxCell id="3X_j2uL-a-olMlORm64K-49" value="linear regression" style="text;html=1;align=center;verticalAlign=middle;whiteSpace=wrap;rounded=0;rotation=-45;fontColor=#4C0099;fontSize=10;" vertex="1" parent="3X_j2uL-a-olMlORm64K-1">
          <mxGeometry x="200" y="218" width="150" height="10" as="geometry" />
        </mxCell>
        <mxCell id="VdM78c3YXYXDrtLGGe_U-0" value="" style="curved=0;endArrow=none;html=1;rounded=0;endFill=0;strokeWidth=2;strokeColor=#4C0099;" edge="1" parent="3X_j2uL-a-olMlORm64K-1">
          <mxGeometry width="50" height="50" relative="1" as="geometry">
            <mxPoint x="40" y="320" as="sourcePoint" />
            <mxPoint x="370" y="40" as="targetPoint" />
            <Array as="points">
              <mxPoint x="230" y="280" />
              <mxPoint x="330" y="180" />
            </Array>
          </mxGeometry>
        </mxCell>
      </root>
    </mxGraphModel>
  </diagram>
</mxfile>
